<html>
<head>
<meta charset="UTF-8">
<meta name="viewport" content="width=device-width, initial-scale=1.0"/>

<style>
.comment
{
    padding-left: 20px;
    margin-top: 4px;
    margin-right: 4px;
    margin-bottom: 4px;
    border: 2px #000 solid;
}
.submission
{
    border: 4px #00f solid;
    padding-left: 20px;
}
.hidden
{
    display: none;
}
</style>
</head>
<body><div class="submission" id="t3_68y11e">
    <p class="userinfo">
        <a href="https://www.reddit.com/u/vcdupper">vcdupper</a>
        <span class="score"> | 25 points</span>
        <span class="timestamp"> | May 03 2017 03:44:39</span>
    </p>
    <strong>[MOVIE] Aliens.vs.Predator.Requiem.2007.1080p.Bluray.x265.HEVC.10bit.AAC.5.1-Tigole [2.04GB]</strong>
    <p><p>Add mega<br>
.nz/#!pKoTjA4a<br>
!DgMTKLacSpNkRRVYYOruSa5Tw3Ck1NqQikY7nRhW5m4  </p>
<hr>
<h3><a href="https://youtu.be/ixZnhA7Wmq4">Unsure How To Download?</a>  &lt;------CLICK HERE!!!</h3>
<hr>
<h3>SPECS:</h3>
<p>Format : Matroska<br>
Format version : Version 4 / Version 2<br>
File size : 2.04 GiB<br>
Duration : 1h 33mn<br>
Overall bit rate : 3 111 Kbps<br>
Encoded date : UTC 2016-10-15 05:04:35<br>
Writing application : mkvmerge v9.2.0 (\'Photograph\') 64bit<br>
Writing library : libebml v1.3.3 + libmatroska v1.4.4  </p>
<p>Video<br>
ID : 1<br>
Format : HEVC<br>
Format/Info : High Efficiency Video Coding<br>
Format profile : Main 10@L4@Main<br>
Codec ID : V_MPEGH/ISO/HEVC<br>
Duration : 1h 33mn<br>
Bit rate : 2454 Kbps<br>
Width : 1920 pixels<br>
Height : 800 pixels<br>
Display aspect ratio : 2.40:1<br>
Frame rate mode : Constant<br>
Frame rate : 23.976 (24000/1001) fps<br>
Color space : YUV<br>
Chroma subsampling : 4:2:0<br>
Bit depth : 10 bits<br>
Bits/(Pixel*Frame) : 0.067<br>
Stream size : 1.61 GiB (79%)<br>
Writing library : x265 2.1+2-c0d91c2b4048:[Windows][GCC 6.2.0][64 bit] 10bit<br>
Default : Yes <br>
Forced : No  </p>
<p>Audio #1<br>
ID : 2<br>
Format : AAC<br>
Format/Info : Advanced Audio Codec<br>
Format profile : LC<br>
Codec ID : A_AAC<br>
Duration : 1h 33mn<br>
Bit rate : 353 Kbps<br>
Channel(s) : 6 channels<br>
Channel positions : Front: L C R, Side: L R, LFE<br>
Sampling rate : 48.0 KHz<br>
Frame rate : 46.875 fps (1024 spf)<br>
Compression mode : Lossy<br>
Delay relative to video : 20ms<br>
Stream size : 238 MiB (11%)<br>
Language : English<br>
Default : Yes<br>
Forced : No  </p>
<p>Audio #2<br>
ID : 3<br>
Format : AAC<br>
Format/Info : Advanced Audio Codec<br>
Format profile : HE-AAC / LC<br>
Codec ID : A_AAC<br>
Duration : 1h 33mn<br>
Bit rate : 66.2 Kbps<br>
Channel(s) : 2 channels<br>
Channel positions : Front: L R<br>
Sampling rate : 48.0 KHz / 24.0 KHz<br>
Frame rate : 23.438 fps (1024 spf)<br>
Compression mode : Lossy<br>
Delay relative to video : 40ms<br>
Stream size : 44.2 MiB (2%)<br>
Title : Commentary 1<br>
Language : English<br>
Default : No<br>
Forced : No  </p>
<p>Audio #3<br>
ID : 4<br>
Format : AAC<br>
Format/Info : Advanced Audio Codec<br>
Format profile : HE-AAC / LC<br>
Codec ID : A_AAC<br>
Duration : 1h 33mn<br>
Bit rate : 66.2 Kbps<br>
Channel(s) : 2 channels<br>
Channel positions : Front: L R<br>
Sampling rate : 48.0 KHz / 24.0 KHz<br>
Frame rate : 23.438 fps (1024 spf)<br>
Compression mode : Lossy<br>
Delay relative to video : 40ms<br>
Stream size : 44.2 MiB (2%)<br>
Title : Commentary 2<br>
Language : English<br>
Default : No<br>
Forced : No  </p>
<p>Text #1<br>
ID : 5<br>
Format : VobSub<br>
Muxing mode : zlib<br>
Codec ID : S_VOBSUB<br>
Codec ID/Info : Picture based subtitle format used on DVDs<br>
Duration : 1h 27mn<br>
Bit rate : 3 153 bps<br>
Count of elements : 672<br>
Stream size : 1.96 MiB (0%)<br>
Language : English<br>
Default : No<br>
Forced : No  </p>
<p>Text #2<br>
ID : 6<br>
Format : VobSub<br>
Muxing mode : zlib<br>
Codec ID : S_VOBSUB <br>
Codec ID/Info : Picture based subtitle format used on DVDs<br>
Duration : 1h 29mn<br>
Bit rate : 13.0 Kbps<br>
Count of elements : 1403<br>
Stream size : 8.34 MiB (0%)<br>
Title : Commentary 1<br>
Language : English<br>
Default : No<br>
Forced : No  </p>
<p>Text #3<br>
ID : 7<br>
Format : VobSub<br>
Muxing mode : zlib<br>
Codec ID : S_VOBSUB  <br>
Codec ID/Info : Picture based subtitle format used on DVDs<br>
Duration : 1h 28mn<br>
Bit rate : 10.5 Kbps<br>
Count of elements : 1190<br>
Stream size : 6.59 MiB (0%)<br>
Title : Commentary 2<br>
Language : English<br>
Default : No<br>
Forced : No  </p>
<p>Text #4<br>
ID : 8<br>
Format : VobSub<br>
Muxing mode : zlib<br>
Codec ID : S_VOBSUB<br>
Codec ID/Info : Picture based subtitle format used on DVDs<br>
Duration : 1h 30mn <br>
Bit rate : 1 877 bps<br>
Count of elements : 476<br>
Stream size : 1.22 MiB (0%)  <br>
Language : French<br>
Default : No<br>
Forced : No  </p>
<p>Text #5<br>
ID : 9<br>
Format : VobSub<br>
Muxing mode : zlib<br>
Codec ID : S_VOBSUB<br>
Codec ID/Info : Picture based subtitle format used on DVDs<br>
Duration : 1h 29mn<br>
Bit rate : 9 825 bps<br>
Count of elements : 1394<br>
Stream size : 6.30 MiB (0%)<br>
Title : Commentary 1<br>
Language : French<br>
Default : No<br>
Forced : No  </p>
<p>Text #6<br>
ID : 10<br>
Format : VobSub<br>
Muxing mode : zlib<br>
Codec ID : S_VOBSUB<br>
Codec ID/Info : Picture based subtitle format used on DVDs<br>
Duration : 1h 33mn<br>
Bit rate : 8 445 bps<br>
Count of elements : 1118<br>
Stream size : 5.66 MiB (0%)<br>
Title : Commentary 2<br>
Language : French<br>
Default : No  <br>
Forced : No  </p>
<p>Text #7<br>
ID : 11<br>
Format : VobSub<br>
Muxing mode : zlib<br>
Codec ID : S_VOBSUB<br>
Codec ID/Info : Picture based subtitle format used on DVDs<br>
Duration : 1h 24mn<br>
Bit rate : 2 617 bps<br>
Count of elements : 499<br>
Stream size : 1.58 MiB (0%)<br>
Language : German<br>
Default : No<br>
Forced : No  </p>
<p>Text #8<br>
ID : 12<br>
Format : VobSub<br>
Muxing mode : zlib<br>
Codec ID : S_VOBSUB <br>
Codec ID/Info : Picture based subtitle format used on DVDs<br>
Duration : 39mn 59s<br>
Bit rate : 22 bps<br>
Count of elements : 2<br>
Stream size : 6.45 KiB (0%)<br>
Title : Forced 
Language : German<br>
Default : No<br>
Forced : No  </p>
<p>Text #9<br>
ID : 13<br>
Format : VobSub<br>
Muxing mode : zlib<br>
Codec ID : S_VOBSUB<br>
Codec ID/Info : Picture based subtitle format used on DVDs<br>
Duration : 1h 29mn<br>
Bit rate : 11.4 Kbps<br>
Count of elements : 1393<br>
Stream size : 7.29 MiB (0%)<br>
Title : Commentary 1<br>
Language : German<br>
Default : No<br>
Forced : No  </p>
<p>Text #10<br>
ID : 14<br>
Format : VobSub<br>
Muxing mode : zlib<br>
Codec ID : S_VOBSUB<br>
Codec ID/Info : Picture based subtitle format used on DVDs<br>
Duration : 1h 28mn<br>
Bit rate : 9 587 bps<br>
Count of elements : 1118<br>
Stream size : 6.05 MiB (0%)<br>
Title : Commentary 2<br>
Language : German<br>
Default : No<br>
Forced : No  </p>
<p>Text #11<br>
ID : 15<br>
Format : VobSub<br>
Muxing mode : zlib<br>
Codec ID : S_VOBSUB<br>
Codec ID/Info : Picture based subtitle format used on DVDs<br>
Duration : 1h 24mn<br>
Bit rate : 2 440 bps<br>
Count of elements : 494<br>
Stream size : 1.48 MiB (0%)<br>
Language : Danish<br>
Default : No<br>
Forced : No  </p>
<p>Text #12<br>
ID : 16<br>
Format : VobSub<br>
Muxing mode : zlib<br>
Codec ID : S_VOBSUB<br>
Codec ID/Info : Picture based subtitle format used on DVDs<br>
Duration : 1h 29mn<br>
Bit rate : 10.7 Kbps<br>
Count of elements : 1392<br>
Stream size : 6.83 MiB (0%)<br>
Title : Commentary 1<br>
Language : Danish<br>
Default : No<br>
Forced : No  </p>
<p>Text #13<br>
ID : 17<br>
Format : VobSub<br>
Muxing mode : zlib<br>
Codec ID : S_VOBSUB<br>
Codec ID/Info : Picture based subtitle format used on DVDs<br>
Duration : 1h 28mn<br>
Bit rate : 8 819 bps<br>
Count of elements : 1117<br>
Stream size : 5.56 MiB (0%)<br>
Title : Commentary 2<br>
Language : Danish<br>
Default : No<br>
Forced : No  </p>
<p>Text #14<br>
ID : 18<br>
Format : VobSub<br>
Muxing mode : zlib<br>
Codec ID : S_VOBSUB<br>
Codec ID/Info : Picture based subtitle format used on DVDs<br>
Duration : 1h 24mn<br>
Bit rate : 2 126 bps<br>
Count of elements : 500<br>
Stream size : 1.29 MiB (0%)<br>
Language : Finnish<br>
Default : No<br>
Forced : No  </p>
<p>Text #15<br>
ID : 19<br>
Format : VobSub<br>
Muxing mode : zlib<br>
Codec ID : S_VOBSUB<br>
Codec ID/Info : Picture based subtitle format used on DVDs<br>
Duration : 1h 29mn<br>
Bit rate : 10.8 Kbps<br>
Count of elements : 1393<br>
Stream size : 6.92 MiB (0%)<br>
Title : Commentary 1<br>
Language : Finnish<br>
Default : No<br>
Forced : No  </p>
<p>Text #16<br>
ID : 20<br>
Format : VobSub<br>
Muxing mode : zlib<br>
Codec ID : S_VOBSUB<br>
Codec ID/Info : Picture based subtitle format used on DVDs<br>
Duration : 1h 28mn<br>
Bit rate : 8 667 bps<br>
Count of elements : 1117<br>
Stream size : 5.47 MiB (0%)<br>
Title : Commentary 2<br>
Language : Finnish<br>
Default : No<br>
Forced : No  </p>
<p>Text #17<br>
ID : 21<br>
Format : VobSub<br>
Muxing mode : zlib<br>
Codec ID : S_VOBSUB<br>
Codec ID/Info : Picture based subtitle format used on DVDs<br>
Duration : 1h 24mn<br>
Bit rate : 2 360 bps<br>
Count of elements : 499 <br>
Stream size : 1.43 MiB (0%)<br>
Language : Norwegian Bokmal<br>
Default : No<br>
Forced : No  </p>
<p>Text #18<br>
ID : 22<br>
Format : VobSub<br>
Muxing mode : zlib<br>
Codec ID : S_VOBSUB <br>
Codec ID/Info : Picture based subtitle format used on DVDs<br>
Duration : 1h 29mn<br>
Bit rate : 10.3 Kbps <br>
Count of elements : 1393<br>
Stream size : 6.62 MiB (0%)<br>
Title : Commentary 1<br>
Language : Norwegian Bokmal<br>
Default : No<br>
Forced : No  </p>
<p>Text #19<br>
ID : 23<br>
Format : VobSub<br>
Muxing mode : zlib<br>
Codec ID : S_VOBSUB<br>
Codec ID/Info : Picture based subtitle format used on DVDs<br>
Duration : 1h 28mn<br>
Bit rate : 8 345 bps<br>
Count of elements : 1117<br>
Stream size : 5.26 MiB (0%)<br>
Title : Commentary 2<br>
Language : Norwegian Bokmal<br>
Default : No<br>
Forced : No  </p>
<p>Text #20<br>
ID : 24<br>
Format : VobSub<br>
Muxing mode : zlib<br>
Codec ID : S_VOBSUB<br>
Codec ID/Info : Picture based subtitle format used on DVDs<br>
Duration : 1h 24mn<br>
Bit rate : 2 147 bps<br>
Count of elements : 464<br>
Stream size : 1.30 MiB (0%)<br>
Language : Swedish<br>
Default : No<br>
Forced : No  </p>
<p>Text #21<br>
ID : 25<br>
Format : VobSub<br>
Muxing mode : zlib<br>
Codec ID : S_VOBSUB<br>
Codec ID/Info : Picture based subtitle format used on DVDs<br>
Duration : 1h 29mn<br>
Bit rate : 10.2 Kbps<br>
Count of elements : 1365<br>
Stream size : 6.53 MiB (0%)<br>
Title : Commentary 1<br>
Language : Swedish<br>
Default : No<br>
Forced : No  </p>
<p>Text #22<br>
ID : 26<br>
Format : VobSub<br>
Muxing mode : zlib<br>
Codec ID : S_VOBSUB<br>
Codec ID/Info : Picture based subtitle format used on DVDs<br>
Duration : 1h 28mn<br>
Bit rate : 6 710 bps<br>
Count of elements : 935<br>
Stream size : 4.23 MiB (0%)<br>
Title : Commentary 2<br>
Language : Swedish<br>
Default : No<br>
Forced : No  </p>
<p>Text #23<br>
ID : 27<br>
Format : VobSub<br>
Muxing mode : zlib<br>
Codec ID : S_VOBSUB<br>
Codec ID/Info : Picture based subtitle format used on DVDs<br>
Duration : 1h 24mn<br>
Bit rate : 2 256 bps<br>
Count of elements : 471<br>
Stream size : 1.36 MiB (0%)<br>
Language : Dutch <br>
Default : No<br>
Forced : No  </p>
<p>Text #24<br>
ID : 28<br>
Format : VobSub<br>
Muxing mode : zlib<br>
Codec ID : S_VOBSUB<br>
Codec ID/Info : Picture based subtitle format used on DVDs<br>
Duration : 1h 29mn<br>
Bit rate : 9 846 bps<br>
Count of elements : 1393<br>
Stream size : 6.31 MiB (0%)<br>
Title : Commentary 1<br>
Language : Dutch<br>
Default : No<br>
Forced : No  </p>
<p>Text #25<br>
ID : 29<br>
Format : VobSub<br>
Muxing mode : zlib<br>
Codec ID : S_VOBSUB<br>
Codec ID/Info : Picture based subtitle format used on DVDs<br>
Duration : 1h 28mn<br>
Bit rate : 8 655 bps<br>
Count of elements : 1117<br>
Stream size : 5.46 MiB (0%)<br>
Title : Commentary 2<br>
Language : Dutch<br>
Default : No<br>
Forced : No  </p></p>
    <p class="toolbar">
        <a href="https://www.reddit.com/r/megalinks/comments/68y11e">permalink</a>
    </p>
</div>
<div class="comment" id="t1_dh27xb0">
    <p class="userinfo">
        <a
        class="toggle_hide_button"
        href="javascript:void(0)"
        onclick="toggle_collapse(this.parentElement.parentElement)">[-]
        </a>
        <a href="https://www.reddit.com/u/SubZorro">SubZorro</a>
        <span class="score"> | 1 points</span>
        <span class="timestamp"> | May 03 2017 03:47:05</span>
    </p>
    <div class="collapsible">
        <h5>Subtitles for this movie:</h5>
<hr>
<blockquote>
<ul>
<li>
<p><strong>AVPR Aliens vs Predator - Requiem.[2007].LAB,DVDRIP.XVID.[Eng]-DUQA</strong> - <code>1 CD</code> - <a href="http://dl.opensubtitles.org/en/download/vrf-7520f6db/sub/3265641">Download Subtitle</a></p>
</li>
<li>
<p><strong>Aliens vs Predator - Requiem[2007][Unrated Edition]DvDrip[Eng]-FXG</strong> - <code>1 CD</code> - <a href="http://dl.opensubtitles.org/en/download/vrf-f1a54e95/sub/3528360">Download Subtitle</a></p>
</li>
<li>
<p><strong>Aliens.vs.Predator.Requiem.720p.BluRay.x264-REFiNED</strong> - <code>1 CD</code> - <a href="http://dl.opensubtitles.org/en/download/vrf-76b4ee11/sub/3274355">Download Subtitle</a></p>
</li>
<li>
<p><strong>AVPR: Aliens vs Predator - Requiem</strong> - <code>1 CD</code> - <a href="http://dl.opensubtitles.org/en/download/vrf-67d4df66/sub/3256708">Download Subtitle</a></p>
</li>
<li>
<p><strong>Aliens vs Predator - Requiem[Eng][Subs]</strong> - <code>1 CD</code> - <a href="http://dl.opensubtitles.org/en/download/vrf-503ff295/sub/3284632">Download Subtitle</a></p>
</li>
</ul>
</blockquote>
<hr>
<p>^This ^list ^of ^subtitles ^are ^taken ^from <a href="http://www.opensubtitles.org">^opensubtitles.org</a> ^| ^For ^feedback ^or ^suggestions ^contact <a href="http://www.reddit.com/message/compose/?to=indigo6alpha">^/u/indigo6alpha</a></p>
        <p class="toolbar">
            <a href="https://www.reddit.com/r/megalinks/comments/68y11e/_/dh27xb0">permalink</a>
        </p>
        
    </div>
</div>

<div class="comment" id="t1_dh2il37">
    <p class="userinfo">
        <a
        class="toggle_hide_button"
        href="javascript:void(0)"
        onclick="toggle_collapse(this.parentElement.parentElement)">[-]
        </a>
        <a href="https://www.reddit.com/u/Lord_Ryu">Lord_Ryu</a>
        <span class="score"> | 1 points</span>
        <span class="timestamp"> | May 03 2017 10:46:55</span>
    </p>
    <div class="collapsible">
        <p>Unrated?</p>
        <p class="toolbar">
            <a href="https://www.reddit.com/r/megalinks/comments/68y11e/_/dh2il37">permalink</a>
        </p>
        
    </div>
</div>
</body>

<script>
function toggle_collapse(comment_div)
{
    var button = comment_div.getElementsByClassName("toggle_hide_button")[0];
    var collapsible = comment_div.getElementsByClassName("collapsible")[0];
    if (collapsible.classList.contains("hidden"))
    {
        collapsible.classList.remove("hidden");
        button.innerText = "[-]";
    }
    else
    {
        collapsible.classList.add("hidden");
        button.innerText = "[+]";
    }
}
</script>
</html>
